<?xml version="1.0" encoding="utf-8"?>
<!-- Generator: Adobe Illustrator 19.1.0, SVG Export Plug-In . SVG Version: 6.00 Build 0)  -->
<svg version="1.1" id="Layer_1" xmlns="http://www.w3.org/2000/svg" xmlns:xlink="http://www.w3.org/1999/xlink" x="0px" y="0px"
	 viewBox="0 0 512 512" style="enable-background:new 0 0 512 512;" xml:space="preserve">
<style type="text/css">
	.st0{fill:none;stroke:#FFFFFF;stroke-width:12;stroke-miterlimit:10;}
	.st1{fill:none;stroke:#FFFFFF;stroke-width:13.0458;stroke-miterlimit:10;}
	.st2{fill:none;stroke:#FFFFFF;stroke-width:13;stroke-miterlimit:10;}
</style>
<g>
	<path class="st0" d="M950.6,423.4h-327V56.6c0-5.5,4.5-10,10-10h307c5.5,0,10,4.5,10,10V423.4z"/>
	<rect x="698.6" y="100.6" class="st0" width="181.5" height="61.5"/>
	<path class="st0" d="M951,479H673c0,0-49.4,4.6-49.4-50.1"/>
	<line class="st0" x1="951" y1="452" x2="681" y2="452"/>
</g>
<g>
	<rect x="554.2" y="590.2" class="st0" width="485.4" height="286.3"/>
	<rect x="715.6" y="521" class="st0" width="169.5" height="69.2"/>
	<rect x="753.7" y="701.6" class="st0" width="86.4" height="63.5"/>
	<path class="st0" d="M753.7,737.4c0,0-199.5,26.4-199.5-147.2"/>
	<path class="st0" d="M840.2,737.4c0,0,199.5,26.4,199.5-147.2"/>
</g>
<g>
	<g>
		<path class="st1" d="M265.8,152.7l220.6,51.1c5.7,1.3,5.6,9.4-0.1,10.6l-220.6,46.3c-0.8,0.2-1.6,0.2-2.3,0L48.8,212.1
			c-5.6-1.3-5.6-9.3,0-10.6l214.5-48.7C264.1,152.5,265,152.6,265.8,152.7z"/>
		<path class="st2" d="M122.5,228v128.7c0,0,39.1,35.9,141.4,35.9s144.6-37,144.6-37V231"/>
		<line class="st2" x1="45.5" y1="207" x2="45.5" y2="393"/>
		<circle class="st1" cx="44.6" cy="313.1" r="22.7"/>
	</g>
	<path class="st1" d="M44.6,335.8c0,0-1,38.3-19.5,56.8"/>
</g>
</svg>
