<?xml version="1.0" encoding="utf-8"?>
<!-- Generator: Adobe Illustrator 19.1.0, SVG Export Plug-In . SVG Version: 6.00 Build 0)  -->
<svg version="1.1" id="Layer_1" xmlns="http://www.w3.org/2000/svg" xmlns:xlink="http://www.w3.org/1999/xlink" x="0px" y="0px"
	 viewBox="0 0 512 512" style="enable-background:new 0 0 512 512;" xml:space="preserve">
<style type="text/css">
	.st0{fill:none;stroke:#FFFFFF;stroke-width:12;stroke-miterlimit:10;}
	.st1{fill:none;stroke:#FFFFFF;stroke-width:5;stroke-miterlimit:10;}
	.st2{fill:none;stroke:#FFFFFF;stroke-width:13.0458;stroke-miterlimit:10;}
	.st3{fill:none;stroke:#FFFFFF;stroke-width:13;stroke-miterlimit:10;}
</style>
<g>
	<path class="st0" d="M353.3,371.2H157.1V151.1c0-3.3,2.7-6,6-6h184.2c3.3,0,6,2.7,6,6V371.2z"/>
	<rect x="202.1" y="177.5" class="st0" width="108.9" height="36.9"/>
	<path class="st0" d="M354,406H186.7c0,0-29.4,2.8-29.4-30.1"/>
	<line class="st1" x1="354" y1="389.5" x2="192" y2="389.5"/>
</g>
<g>
	<rect x="-449.8" y="499.5" class="st0" width="366.3" height="216.1"/>
	<rect x="-328" y="447.3" class="st0" width="127.9" height="52.2"/>
	<rect x="-299.3" y="583.6" class="st0" width="65.2" height="47.9"/>
	<path class="st0" d="M-299.3,610.5c0,0-150.6,19.9-150.6-111.1"/>
	<path class="st0" d="M-234,610.5c0,0,150.6,19.9,150.6-111.1"/>
</g>
<g>
	<g>
		<path class="st2" d="M-268.2,152.7l220.6,51.1c5.7,1.3,5.6,9.4-0.1,10.6l-220.6,46.3c-0.8,0.2-1.6,0.2-2.3,0l-214.6-48.7
			c-5.6-1.3-5.6-9.3,0-10.6l214.5-48.7C-269.9,152.5-269,152.6-268.2,152.7z"/>
		<path class="st3" d="M-411.5,228v128.7c0,0,39.1,35.9,141.4,35.9s144.6-37,144.6-37V231"/>
		<line class="st3" x1="-488.5" y1="207" x2="-488.5" y2="393"/>
		<circle class="st2" cx="-489.4" cy="313.1" r="22.7"/>
	</g>
	<path class="st2" d="M-489.4,335.8c0,0-1,38.3-19.5,56.8"/>
</g>
</svg>
