<?xml version="1.0" encoding="utf-8"?>
<!-- Generator: Adobe Illustrator 19.1.0, SVG Export Plug-In . SVG Version: 6.00 Build 0)  -->
<svg version="1.1" id="Layer_1" xmlns="http://www.w3.org/2000/svg" xmlns:xlink="http://www.w3.org/1999/xlink" x="0px" y="0px"
	 viewBox="0 0 481 94.5" style="enable-background:new 0 0 481 94.5;" xml:space="preserve">
<style type="text/css">
	.st0{fill:#4AA0CE;}
	.st1{fill:#1B3543;}
	.st2{fill:#1D3644;}
	.st3{font-family:'OpenSans-Light';}
	.st4{font-size:25.646px;}
	.st5{letter-spacing:6;}
	.st6{letter-spacing:9;}
	.st7{letter-spacing:10;}
	.st8{letter-spacing:11;}
	.st9{letter-spacing:8;}
</style>
<g>
	<path class="st0" d="M51.6,83.8c2.2-3.2,4.7-6.1,6.5-9.4c3.8-7,3.2-13.7-1.9-19.9c-3.3-4-6.1-8.3-6.8-13.6
		c-1.3-9.3,2.4-16.6,9.9-22c8-5.7,17.1-8.8,26.8-9.9c7.5-0.8,15.1-0.9,23.2-1.4c-2.4,15.3-4.6,30-6.9,45c-3.4-1-6.6-1.9-9.9-2.8
		c1.6-10.5,3.2-20.8,4.9-31.7c-4.5,0.5-8.6,0.8-12.5,1.5c-7.2,1.2-13.9,3.7-19.9,7.9c-5.6,3.9-7.1,10.3-3.7,16.3
		c0.5,1,1.1,2,1.9,2.8c6.4,7.3,9,15.6,7,25.3c4.2-1,8.1-1.9,12.3-2.9c1,3.5,1.9,6.7,2.9,10.1c-9.4,1.1-17.6,4.4-25.1,9.8
		C57.1,87.1,54.3,85.4,51.6,83.8z"/>
	<path class="st1" d="M10.5,8.2c15.8-0.5,30.9,0.1,44.7,7.6c-2.4,2.6-4.7,5.1-7.1,7.8c-7.9-3.5-16.4-5.1-25.6-5.2
		c2.7,16.9,5.3,33.5,8,50.2c8,0.4,15.6,1.9,23.3,5.2c-2.5,2.9-4.8,5.5-7.1,8.2c-8.1-3-16.2-3.4-24.7-2.9C18,55.3,14.3,31.9,10.5,8.2
		z"/>
	<path class="st2" d="M96.3,72.2c-2,3.3-3.7,6.1-5.7,9.4c-2.9-10.2-5.7-19.9-8.5-29.9c10,2.9,19.8,5.6,29.9,8.5
		c-3.1,1.9-6,3.7-8.9,5.5c3.2,3.1,6.2,6.1,9.1,9c-2.5,2.5-4.6,4.7-6.7,6.8C102.5,78.5,99.5,75.4,96.3,72.2z"/>
</g>
<g>
	<path class="st1" d="M231.4,74.3c-4.4,0-8.5,0-12.9,0c0.2-0.8,0.3-1.5,0.6-2.1c1.6-4,3.3-8,4.9-11.9c0.5-1.1,0.5-2.1,0.1-3.3
		c-4.7-11.8-9.3-23.7-13.9-35.5c0-0.1-0.2-0.1-0.6-0.5c-0.2,3.4-0.1,6.6-0.1,9.8c0,3.3,0,6.5,0,9.8s0,6.5,0,9.8c0,3.3,0,6.5,0,10.1
		c-2.1,0-4.1,0.1-6,0.1c-2,0-4,0-6.1,0c-0.2-1.1-0.3-2.1-0.5-3.3c-2.6,2.4-5.4,4.1-8.9,4.6c-10.4,1.5-18.9-4.1-22.1-12.8
		c-2.2-6.2-2.3-12.4,0.3-18.5c4.1-9.8,14.6-14.3,24.1-11.7c2.5,0.7,4.5,2.2,6.6,4.4c0.2-1.4,0.3-2.4,0.4-3.6c8.4,0,16.8,0,25.5,0
		c2.6,7.5,5.3,15.1,8.2,23.2c3-7.9,5.2-15.7,7.9-23.3c4.3,0,8.5,0,13.1,0C245,38,238.2,56.1,231.4,74.3z M197,40
		c0-5.8-4.7-10.4-10.5-10.3c-5.6,0.1-9.9,4.7-9.9,10.5c0,5.8,4.6,10.4,10.3,10.4C192.7,50.5,197.1,46,197,40z"/>
	<path class="st1" d="M459.8,57.6c-0.3,0.1-0.4,0-0.5,0.1c-6.6,7.4-19.7,4.7-25.7-2c-4.4-4.9-5.9-10.7-5.5-17.2
		c0.4-5.7,2.2-10.7,6.4-14.6c5.5-5.1,12-6.8,19.3-4.9c2.1,0.6,3.9,1.9,6,2.9c0.2-0.6,0.3-1.3,0.5-2.2c3.9,0,7.8,0,11.9,0
		c0.1,0.3,0.3,0.6,0.3,0.9c0,12.8,0,25.7,0,38.5c0,10.1-4.6,15.6-14.6,18.7c-6,1.8-12.1,1.7-18-0.4c-5.3-1.9-8.9-5.4-10.7-10.8
		c-0.1-0.4-0.2-0.8-0.2-1.2c0-0.2,0.1-0.4,0.2-0.8c4.5,0,9,0,13.5,0c3.9,3.8,7.9,4.8,12,2.9C458.7,65.7,460.6,61.7,459.8,57.6z
		 M460,40.4c0-6.2-3.9-10.6-9.7-10.5c-6.4,0.1-10,4.9-10,10.3c-0.1,5.9,4.5,10.4,10,10.4C456,50.5,460,46.3,460,40.4z"/>
	<path class="st1" d="M379.5,61.9c-10.3,0.4-17.9-6-20.8-13.8c-3.3-8.9-0.8-18.9,6.4-25c2.9-2.4,6.2-3.9,9.9-4.5
		c12.1-1.9,21.9,3.7,25.5,14.5c3.6,10.8-1.4,22.5-11.5,27C385.9,61.5,382.6,62.1,379.5,61.9z M369.9,39.8c0,0.6,0,1.3,0,1.9
		c0.6,6.3,7,10.3,12.9,8.2c3.9-1.4,6.4-5.3,6.4-9.9c0-5.6-4.3-10-9.6-10.1C374.3,29.8,369.9,34.2,369.9,39.8z"/>
	<path class="st1" d="M291.7,62c-10.8,0.3-19.5-6.9-21.6-17.4c-2.5-12.5,5.7-26,20.8-26.3c6.6-0.1,12.5,1.6,17.1,6.6
		c5.7,6.2,7.3,13.7,5,21.7c-2.3,8-7.8,13.1-16,14.9C295.3,61.9,293.5,61.9,291.7,62z M282.2,39.9c0,0.5,0,1.1,0,1.6
		c0.5,6.6,7.5,10.4,12.5,8.5c4.3-1.6,6.9-5.3,6.8-10.2c-0.1-5.6-4.5-10-9.8-9.9C286.3,29.9,282.2,34.3,282.2,39.9z"/>
	<path class="st1" d="M129.6,48.7c4.1,0,8,0,12,0c0.2,0.4,0.5,1,0.9,1.5c1.6,2.2,4.4,2.8,6.7,1.3c2-1.2,2.1-3.3,0.2-4.6
		c-0.8-0.6-1.8-1-2.8-1.4c-2.3-0.9-4.7-1.7-7.1-2.6c-1.1-0.4-2.2-0.8-3.2-1.4c-6.9-3.7-8.4-11.5-3.3-17.6c1.1-1.3,2.5-2.6,4.1-3.4
		c6-3.1,12.2-3.2,18.1,0c4.1,2.2,6.3,5.7,6.4,10.6c-4,0-7.7,0-11.5,0c-1.6-2.6-2.8-3.3-5.2-2.8c-1.1,0.2-2,0.8-2.3,1.9
		c-0.3,1.2,0.3,2.1,1.3,2.6c1.5,0.7,3,1.4,4.6,2c2.3,0.8,4.6,1.5,6.9,2.3c10.7,3.9,8.8,16.3,3.1,21.1c-6.5,5.4-17.2,5.3-23.6,0.6
		C131.7,56.3,130.1,53,129.6,48.7z"/>
	<path class="st1" d="M265.6,60.5c-4.2,0-8,0-12.1,0c0-18.2,0-36.2,0-54.4c4.1,0,8,0,12.1,0C265.6,24.3,265.6,42.2,265.6,60.5z"/>
	<path class="st1" d="M330.2,60.5c-4.3,0-8.2,0-12,0c-0.5-2.4-0.7-36.7-0.2-40.8c3.7,0,7.4,0,11.3,0c0.1,1,0.2,1.9,0.4,3.2
		c2.7-3.1,5.7-5,9.9-4.5c0,4,0,8,0,12.1c-0.7,0.1-1.4,0.2-2.1,0.2c-4.9,0.4-7.2,2.8-7.3,7.7c0,6.5,0,13.1,0,19.6
		C330.2,58.8,330.2,59.5,330.2,60.5z"/>
	<path class="st1" d="M405.7,19.6c3.8,0,7.4,0,11.2,0c0.2,1,0.4,1.9,0.7,3.2c2.6-3.1,5.6-4.8,9.9-4.4c0.1,4,0,8,0,12.3
		c-1.2,0.1-2.1,0.1-3,0.2c-4.2,0.4-6.5,2.8-6.5,7c-0.1,6.6,0,13.3,0,19.9c0,0.8,0,1.6,0,2.8c-4.2,0.2-8.1,0.1-12.3,0.1
		C405.7,46.9,405.7,33.4,405.7,19.6z"/>
	<path class="st1" d="M346.2,60.6c-3.7,0-6.3-2.6-6.3-6.3c0-3.4,2.8-6.2,6.1-6.3c3.7-0.1,6.4,2.5,6.4,6.2
		C352.5,58.1,350,60.6,346.2,60.6z"/>
	<text transform="matrix(1 0 0 1 246.2957 83.5019)"><tspan x="0" y="0" class="st3 st4 st5">A</tspan><tspan x="22.2" y="0" class="st3 st4 st6">C</tspan><tspan x="47.5" y="0" class="st3 st4 st7">A</tspan><tspan x="73.6" y="0" class="st3 st4 st8">DE</tspan><tspan x="128.4" y="0" class="st3 st4 st9">M</tspan><tspan x="159.3" y="0" class="st3 st4">Y</tspan></text>
</g>
</svg>
